<svg width="24" height="24" viewBox="0 0 24 24" fill="none" xmlns="http://www.w3.org/2000/svg">
<path d="M14 19.5L14.4472 19.2764C14.786 19.107 15 18.7607 15 18.382V14.2883C15 13.7817 15.1922 13.294 15.5379 12.9237L21.1932 6.86447C21.7116 6.30895 22 5.57739 22 4.81751V4C22 2.89543 21.1046 2 20 2H4C2.89543 2 2 2.89543 2 4V4.81751C2 5.57739 2.28836 6.30895 2.80683 6.86446L8.46211 12.9237C8.80776 13.294 9 13.7817 9 14.2883V20.382C9 21.1253 9.78231 21.6088 10.4472 21.2764L10.8015 21.0992" stroke="#fff" stroke-width="1.5" stroke-linecap="round"/>
</svg>